<mxfile host="app.diagrams.net" modified="2023-10-24T15:34:41.567Z" agent="Mozilla/5.0 (Windows NT 10.0; Win64; x64) AppleWebKit/537.36 (KHTML, like Gecko) Chrome/118.0.0.0 Safari/537.36" version="22.0.6" etag="HowEtes8_foTu2qlIUWD" type="github">
  <diagram name="Trang-1" id="Yb5hZrFL430F6G2crJQP">
    <mxGraphModel>
      <root>
        <mxCell id="0" />
        <mxCell id="1" parent="0" />
      </root>
    </mxGraphModel>
  </diagram>
</mxfile>
